<svg xmlns="http://www.w3.org/2000/svg" viewBox="0 0 324 287" width="324" height="287">
<g stroke="#1B1B1B" stroke-linecap="round" stroke-linejoin="round">
<path d="M70.5 181.7Q66 181.9 61.5 183.4t-8.5 4.4t-6.8 6.6t-4.5 8.1t-2.1 8.5t.1 7.5t1.8 7t3.7 7.5t.6 10.5t-1.2 9t2 5t3.4 4q2 1.5 4.5 2.3t8 .6t11-.2t11.3 .2t11.4 .7t11.6 .7t11.4 .7t9.8 .1t7.8 1.2t7.4 2.6t5.8 .5t2.5-2.4q.5-1.5 .3-4t1.1-5t-.1-6t-1.2-6t-1.2-4.2t-4.8-1.5t-3.9-.3t-.6-.5t1.5-4.5t1.8-8t-.8-7t-3.1-6.5q-2.2-3 -4.8-4.9t-6.5-3.5t-7.4-3t-9.6-4.7t-11.7-6.1t-11.7-6.1t-10.3-4.2t-9-.8Z" fill="#549535" stroke-width="5"/>
<path d="M150 238.4Q148 237.9 145.5 239t-3.6 3t-1.1 4t1.4 4t1 4.5t0 4t-.8 3.5t-1.6 3.5t0 3t1.2 2.9t3.5 2.5t4.5 .7q2-.5 3.6-2t2.1-3.6t0-4t.7-3.5t1.7-3.5t0-3.5t-1.7-3t-.7-3.5t0-4t-2.1-3.6t-3.6-2Z" fill="#CD7725" stroke-width="3"/>
<path d="M194.5 156.9Q191 157 187 159.1t-5.6 4t-2.6 3.9t-2.1 7.8t-2.4 11.7t-2.4 11.7t-2.9 11.8t-1.4 10t2.5 6.6t6.9 6t9.7 7.1t9.3 7.6q4.7 3.7 9.3 7.5t7.2 4.4t7-.1t9 .4t5.5 .9t2.4-1.8t1.1-4.6t.3-5.5t-.9-5t-2.4-5.5t-1.6-3.7t-2.4-.8q-1.5-.1 -5 2.1t-5.5 2.4t-5.2-3.3t-6.5-7.1t-6.5-7.1t-3.5-5t.1-3t2.6-6.7t4.5-10.3t4.4-10.3t2.6-9.2t-1-7.5q-1.3-3.5 -3.9-6.2t-6.1-4.1t-7-1.3Z" fill="#549535" stroke-width="5"/>
<path d="M230 231.6Q228 231.6 226.4 232.8t-2.2 3.2t.1 3.9t2.1 3t1.4 3.1t.6 3.5t-.3 3t-1.1 3t.4 2.9t1.6 2.3t3.5 1.3t4-.5q1.5-.9 2.3-2.2t.9-2.8t-.5-3t.3-3.5t.9-3.5t-.7-2.9t-2-2.5t-1.2-2.6t-.7-3.3t-2.3-2.7t-3.5-.9Z" fill="#CD7725" stroke-width="3"/>
<path d="M253.5 92.6Q248 92.9 243 94.2t-10 3.5t-9.5 5.6t-8.3 7.5t-6.7 9.2t-4.7 10t-2.5 10.5t-.4 11t1.7 10.5t3.7 10t5.8 9.5t7.3 8q4 3.5 8.8 6.3t9.8 4.6t10.5 2.5t11 .5t10.5-1.6t10-3.7t9.5-5.7t8.1-7.4t6.3-8.5t4.5-9.5t2.7-10.5t.6-11q-.3-5.5 -1.7-11t-3.8-10.5t-5.8-9.5t-7.3-8t-8.6-6.2t-9.5-4.5t-10.5-2.6t-11-.6Z" fill="#F4D7BA" stroke-width="6"/>
<path d="M184 12.6Q179 12.8 175.5 13.8t-6.5 2.5t-5.8 3.6t-5 4.6t-5.5 8t-5.5 11.5t-4.5 12t-6.4 11.5t-8.4 8.7t-8.6 6.4t-9.6 6.1t-10.7 5.8q-5.3 2.9 -10.7 5.8t-10.6 6.6t-10.7 7.4t-8.8 6.9t-6.9 6.5t-6.9 6.4t-7.8 8.6t-8 10.8t-5.4 9t-3.5 7t-3.8 10t-3 13q-.9 6.5 -.5 12.5t2.1 12t4.6 11t6.8 9.5t9.1 8.1t10 6.1t11 4.4t12.5 3.1t10 1.5t7 .4t7 .2t7-.3q3.5-.1 7.3-.6t7.4-.9t7.6-1.3t7.4-1.6t7.8-2.1t8-2.4t7.8-2.7t7.4-3t7.6-3.3t7.4-3.7t7.3-3.9t7-4.2q3.5-2 6.7-4.3t6.6-4.6t6.2-4.8t6-5.1t5.8-5.3t5.5-5.4t5-5.6t4.5-5.4t5.9-8.3t6.4-10.3t5.4-9.7t5.4-9.6q2.7-4.8 5.4-9.6t5.5-9.3t5.5-8.8t5.5-8.8t5.1-9.4t3.8-10t1.9-9.5t.1-9t-1.6-9t-3.3-8.5t-5.3-8t-6.9-7q-3.6-3.1 -8.1-5.7t-9.5-4.6t-10.8-3.5t-11.4-3.1t-10.8-3.7t-10-4.4t-10-4.4t-10-3.2t-10-.8Z" fill="#5DBB3F" stroke-width="6"/>
<path d="M255.1 150Q253 149.9 246.8 151.3t-12.6 2.7t-10.9 2.8t-9.3 3t-9.3 3t-9.5 3.5t-9.7 4t-9.7 3.9t-9.6 4.4t-9.7 4.9t-9.7 4.8t-9.3 5.1q-4.5 2.7 -9 5.3t-9 5.4t-8.3 5.4t-7.7 5.5t-7.7 5.5t-8.5 6.9t-9.4 8.4t-7.8 8t-6.2 7.4t-3 3.8t6 1.3t9.6 1.5q3.5 .3 7 .6t7.3 .2t7.4-.1t7.6-.6t7.4-.9t7.6-1.3t7.4-1.6t7.8-2t8-2.4t7.8-2.7t7.4-3t7.6-3.4q3.8-1.8 7.7-3.7t7.5-4.1t7.3-4.4t6.9-4.6t6.6-4.7t6.2-4.9t6-5.1t5.8-5.5t5.4-5.7t6-7.1t6.4-8.5t5.7-9q2.6-4.6 5.2-9.3t5.2-9.3t2.6-4.7t-2.2 0Z" fill="#F3F0C8" stroke="none" data-noink="1"/>
<path d="M192.5 148.7Q189 148.9 183.5 150.1t-11 2.4t-10 2.8t-9 3.1t-9 3.1t-9.2 3.6t-9.3 4.2t-9.3 4.3t-9 4.5t-8.7 4.8t-8.7 4.8t-9.8 6.2q-5.5 3.8 -11 7.6t-9.6 7.4t-8.2 7.4t-6.4 6.7t-4.1 6t-2.2 5.5t0 4.5t3.3 3.9t8.2 2.7t9.3 .3t7.4-.7t8-1.4q4.3-1 8.6-2t9.2-2.7t10-3.3t10.2-3.8t10.6-4.3t10.4-4.8t10.6-5.1t10-5.3t9.4-5.4t9-5.6t8.6-5.6t7.7-5.7q3.5-2.8 7-5.6t6.1-5.5t5.2-5.4t5.3-7.2t3-8t-.4-4.7t-2.2-2.3t-6-2.2t-8-.9t-7 .3Z" fill="#3A7BD5" stroke="none" data-noink="1"/>
<path d="M177 153.7Q176 154 172.1 155t-4.2 1.5t1 6.7t2.8 12.3t2.8 12.3t1.9 7.3t.6 1.1t3.7-2.6t3.8-3.1t-.9-6.3t-1.8-11.7t-1.8-11.7q-.9-5.8 -1.4-6.6t-.6-.7t-1 .2ZM139.7 168.5Q138 168 135.8 169t-2.8 3.5t.7 8.7t2.8 12.3t2.8 12.3t3 7.7t1.7 1.5t2.5-1.1t2.8-2.6t-.7-7.6t-2-12.7t-1.9-12.7q-1-6.3 -2.2-7.8t-2.8-2ZM102.5 185.8Q100 185.9 98.9 186.9t-1.6 3.1t1 8.2t2.8 12.3t2.8 12.3t2.2 7.5t.9 1.2t.5 0t3.5-1.3t3.1-1.7t-.8-6.8t-1.9-12.7q-1-6.3 -1.9-12.7t-1.7-7.8t-1.8-2.1t-3.5-.6ZM70.7 204Q70 203.9 66.1 207t-4.1 3.5t1.1 5.7t2.3 10.3t2.4 10.3t1.7 5.4t4.6-1t4.1-1.2t-.8-5.5t-1.7-11t-1.7-11t-1.8-7q-.9-1.5 -1.5-1.5Z" fill="#F4D03F" fill-rule="evenodd" stroke="none" data-noink="1"/>
<path d="M54 181.7Q49 182 44.5 183.6t-8.3 4.5t-6.5 6.4t-4.4 8t-2.1 8.5t.1 7.5t1.8 7t3.7 7.5t.6 10.5t-1 9.5t2.1 5.1t3.5 3.6q2 1.5 4.5 2.2t8 .6t11-.3t11.1 .2t11.3 .7t11.2 .7t11.3 .7t10.1 .1t8 1.2t7 2.5t5.5 .8t2.7-1.8q.8-1.3 .6-4.3t1.2-6t0-5.5t-1.1-5t-.3-4t-1.8-2.3t-4.3-.5t-3.6-.2t-.7-.5t1.6-4.5t1.7-8t-.8-7q-1-3.5 -3.1-6.5t-5-5t-6.4-3.4t-7.1-2.9t-9.4-4.6t-11.7-6.1t-11.7-6.2t-10.3-4.2t-9.5-.9Z" fill="#5DBB3F" stroke-width="5"/>
<path d="M133.5 238.5Q131 238 128.8 239t-3.3 3t-1.1 4t1.4 4t1 4.5t0 4t-.8 3.5t-1.6 3.5t0 3t1.3 3t3.7 2.5t4.6 .4q2-.5 3.4-2t1.9-3.4t0-4t.7-3.5t1.7-3.5t0-3.5t-1.7-3t-.7-3.5t.1-4t-2-3.5t-3.9-2Z" fill="#F28C28" stroke-width="3"/>
<path d="M211.5 156.9Q208 156.9 205.5 157.7t-4.2 2.1t-3.5 3.2t-2.6 4t-2.2 7.8t-2.3 11.7t-2.4 11.7t-2.9 11.8t-1.4 10t2.7 6.9t7 6t9.4 6.8q4.6 3.8 9.1 7.5t9.2 7.4t7.1 4.5t7 0t9 .3t6 .9t2.6-1.8t.7-4.5t.4-5.5t-.9-5t-2.5-5.6t-2.8-3.9q-2-.8 -6 1.6t-6 2.4t-5.2-3.5t-6.3-7t-6.4-7t-3.2-6t2.2-7.7t4.4-10.3t4.5-10.3t2.8-9.2t-.5-7.5t-3.7-6.5q-2.6-3 -6.1-4.5t-7-1.6Z" fill="#5DBB3F" stroke-width="5"/>
<path d="M246 231.6Q244 231.8 242.6 232.9t-2 3.1t-.1 3.7t2.1 3t1.5 3.3t.7 3.5t-.3 3t-1.1 3t1.2 3.7t3.9 2.7t4-.2t2.5-2.2q1-1.5 1.1-3t-.5-3t.3-3.5t.9-3.5t-.8-3t-2.1-2.5t-1.1-3t-.9-3.5t-2.4-2.3t-3.5-.6Z" fill="#F28C28" stroke-width="3"/>
<circle cx="185.1" cy="48.4" r="27.9" fill="#E53935" stroke-width="4"/>
<path d="M188.5 29Q187 29 185.4 30.5t-2.6 4t-1.5 6t-.7 7t.2 7t1.5 6.5t2.4 4.6t2.8 2t3-.6t2.8-3.5t2.2-6t.9-7.5q.1-4 -.3-7.5t-1.5-6.5t-2.8-5t-3.3-2Z" fill="#1B1B1B" stroke-width="3"/>
<circle cx="196.6" cy="36.9" r="6.6" fill="#FFFFFF" stroke="none" data-noink="1"/>
<path d="M290.7 79.7L225.1 128.8" fill="none" stroke-width="4"/>
<circle cx="261.8" cy="48.3" r="3.9" fill="#1B1B1B" stroke-width="3"/>
</g>
</svg>
