<svg xmlns="http://www.w3.org/2000/svg" viewBox="0 0 320 320" width="320" height="320">
  <path d="M295.3,83L237.2,123.7A30.9,30.9 0 0,1 219.6,129.2L100.4,129.2C94.1,129.2 88,127.3 82.8,123.7L24.7,83" fill="none" stroke="#1B1B1B" stroke-width="11" stroke-linecap="round" stroke-linejoin="round"/>
  <path d="M98.4,129.2L98.4,298.5" fill="none" stroke="#1B1B1B" stroke-width="11" stroke-linecap="round" stroke-linejoin="round"/>
  <path d="M221.6,129.2L221.6,298.5" fill="none" stroke="#1B1B1B" stroke-width="11" stroke-linecap="round" stroke-linejoin="round"/>
  <path d="M34.6,256.5L86.4,292.9A30.8,30.8 0 0,0 104.1,298.5L215.9,298.5C222.2,298.5 228.4,296.6 233.5,292.9L285.4,256.5C293.6,250.8 298.5,241.3 298.5,231.3L298.5,88.7C298.5,78.7 293.6,69.2 285.4,63.5L233.6,27.1A30.8,30.8 0 0,0 215.9,21.5L104.1,21.5C97.8,21.5 91.6,23.4 86.4,27.1L34.6,63.5A30.9,30.9 0 0,0 21.5,88.7L21.5,231.3C21.5,241.3 26.4,250.8 34.6,256.6" fill="none" stroke="#1B1B1B" stroke-width="11" stroke-linecap="round" stroke-linejoin="round"/>
</svg>
