<svg xmlns="http://www.w3.org/2000/svg" viewBox="0 0 320 320" width="320" height="320">
  <path d="M52.3,298.5C60,229.2 90.8,175.4 160,144.6" fill="none" stroke="#1B1B1B" stroke-width="11" stroke-linecap="round" stroke-linejoin="round"/>
  <path d="M90.8,206.2Q36.9,206.2 21.5,113.8A129.3,129.3 0 0,1 74.4,120A184.7,184.7 0 0,1 73.6,107.8C73.6,52.3 122.9,21.5 122.9,21.5C122.9,21.5 153.7,40.8 166.6,76.2Q206.2,52.3 267.7,52.3Q273.8,110.4 243.8,153.4C279.2,166.3 298.5,197.1 298.5,197.1C298.5,197.1 252.3,236.9 190.8,236.9C190.8,252.3 190.8,252.3 198.5,283.1Q106.1,283.1 90.8,206.2" fill="none" stroke="#1B1B1B" stroke-width="11" stroke-linecap="round" stroke-linejoin="round"/>
</svg>
