<svg xmlns="http://www.w3.org/2000/svg" viewBox="0 0 320 320" width="320" height="320">
  <path d="M21.5,52.3A30.8,30.8 0 0,1 52.3,21.5L267.7,21.5A30.8,30.8 0 0,1 298.5,52.3L298.5,267.7A30.8,30.8 0 0,1 267.7,298.5L52.3,298.5A30.8,30.8 0 0,1 21.5,267.7L21.5,52.3" fill="none" stroke="#1B1B1B" stroke-width="11" stroke-linecap="round" stroke-linejoin="round"/>
  <path d="M129.2,129.2L298.5,129.2" fill="none" stroke="#1B1B1B" stroke-width="11" stroke-linecap="round" stroke-linejoin="round"/>
  <path d="M129.2,21.5L129.2,298.5" fill="none" stroke="#1B1B1B" stroke-width="11" stroke-linecap="round" stroke-linejoin="round"/>
  <path d="M113.8,21.5L21.5,113.8" fill="none" stroke="#1B1B1B" stroke-width="11" stroke-linecap="round" stroke-linejoin="round"/>
  <path d="M129.2,83.1L21.5,190.8" fill="none" stroke="#1B1B1B" stroke-width="11" stroke-linecap="round" stroke-linejoin="round"/>
  <path d="M129.2,160L21.5,267.7" fill="none" stroke="#1B1B1B" stroke-width="11" stroke-linecap="round" stroke-linejoin="round"/>
  <path d="M129.2,236.9L67.7,298.5" fill="none" stroke="#1B1B1B" stroke-width="11" stroke-linecap="round" stroke-linejoin="round"/>
</svg>
